<svg viewBox="0 0 512 512" xmlns="http://www.w3.org/2000/svg"><g fill="none" fill-rule="evenodd"><path fill="#000" d="M0 0h512v512H0z"/><g fill-rule="nonzero"><path d="M482 240.212v30.576L241.212 30h30.576L31 270.788v-30.576L271.788 481h-30.576L482 240.212zM256 497L15 256 256 15l241 241-241 241z" fill="#43A047"/><path d="M421 240.198v30.604L241.198 91h30.604L92 270.802v-30.604L271.802 420h-30.604L421 240.198zM256 436L76 256 256 76l180 180-180 180z" fill="#E53935"/><path d="M359 240.315v30.37L241.315 153h30.37L154 270.685v-30.37L271.685 358h-30.37L359 240.315zM256 374L138 256l118-118 118 118-118 118z" fill="#FDD835"/><path d="M298 241.41v30.18L241.41 215h30.18L215 271.59v-30.18L271.59 298h-30.18L298 241.41zM256 313l-57-57 57-57 57 57-57 57z" fill="#1E88E5"/><g style="mix-blend-mode:screen"><path d="M427 405.286L405.286 427V85L427 106.714H85L106.714 85v342L85 405.286h342zM85 427V85h342v342H85z" fill="#1E88E5"/><path d="M384 362.298L362.298 384V129L384 150.702H129L150.702 129v255L129 362.298h255zM129 384V129h255v255H129z" fill="#FDD835"/><path d="M340 318.323L318.323 340V172L340 193.677H172L193.677 172v168L172 318.323h168zM172 340V172h168v168H172z" fill="#E53935"/><path d="M297 275.133L275.133 297v-82L297 236.867h-82L236.867 215v82L215 275.133h82zM215 297v-82h82v82h-82z" fill="#43A047"/></g></g></g></svg>